# xmcd CD database file
#
# Track frame offsets:
#	150
#	14817
#	29662
#	39206
#	51856
#	67892
#	82906
#	102551
#	117314
#
# Disc length: 1865 seconds
#
# Revision: 0
# Processed by: cddbd v1.5.2PL0 Copyright (c) Steve Scherf et al.
# Submitted via: CDex 1.70beta2
#
DISCID=73074709
DTITLE=Delta Generators - devilintherhythm
DYEAR=2008
DGENRE=Blues
TTITLE0=Hand Me Down Blues
TTITLE1=That Evil
TTITLE2=Devil in the Rhythm
TTITLE3=Bone Orchard Blues
TTITLE4=All Good Things Must Come to an End
TTITLE5=Read My Letter
TTITLE6=Never Satisfied
TTITLE7=Straw Dog Strut
TTITLE8=Somebody's Got to Pay Your Bond
EXTD=YEAR: 2008
EXTT0=
EXTT1=
EXTT2=
EXTT3=
EXTT4=
EXTT5=
EXTT6=
EXTT7=
EXTT8=
PLAYORDER=
